Land_normalized_Motion_pl10
version=1
nRows=18
nColumns=43
inDegrees=yes
endheader
time		pelvis_tilt		pelvis_list		pelvis_rotation		pelvis_tx		pelvis_ty		pelvis_tz		hip_flexion_r		hip_adduction_r		hip_rotation_r		knee_angle_r		ankle_angle_r		subtalar_angle_r		mtp_angle_r		hip_flexion_l		hip_adduction_l		hip_rotation_l		knee_angle_l		ankle_angle_l		subtalar_angle_l		mtp_angle_l		lumbar_extension		lumbar_bending		lumbar_rotation		neck_flexion		neck_lateral_bending		neck_rotation		arm_flex_r		arm_add_r		arm_rot_r		elbow_flex_r		pro_sup_r		wrist_flex_r		wrist_dev_r		hand_finger_flex_r		arm_flex_l		arm_add_l		arm_rot_l		elbow_flex_l		pro_sup_l		wrist_flex_l		wrist_dev_l		hand_finger_flex_l		
0.868333		2.293260		-0.700841		88.902050		-0.006799		0.648372		0.465639		71.803419		-8.470515		-5.763294		-95.383614		20.241110		3.864722		-5.775661		68.538501		-6.765788		2.746760		-96.021557		32.406248		-4.901052		-14.125850		-36.348693		4.501511		3.600399		0.304999		-0.615906		2.474511		-43.832558		-11.863922		-49.103090		54.390347		86.277736		-37.813509		-23.911761		38.646341		-39.916489		-15.946252		-37.531837		45.788172		91.828216		-39.639494		-7.022159		88.522906		
0.871162		2.365769		-0.398236		88.888147		-0.006960		0.639306		0.463425		72.840603		-8.585453		-5.646246		-97.439913		20.190489		3.767559		-5.667749		69.520655		-6.703604		2.971022		-98.059170		32.527401		-5.127121		-14.123704		-37.478943		4.547534		3.694970		1.938861		-0.677255		2.643036		-42.511667		-12.407310		-48.884763		55.753719		86.584534		-37.902134		-24.367444		38.829747		-38.321350		-16.267944		-36.967067		47.330794		92.030117		-39.502415		-7.234906		88.672830		
0.873990		2.584893		0.123055		88.853926		-0.007161		0.631235		0.461416		73.428131		-8.598331		-5.704738		-99.229259		20.133959		3.444034		-5.168410		70.240652		-6.715953		3.299930		-100.008396		32.424533		-5.594733		-14.102861		-38.966062		4.720767		3.907742		3.860700		-0.768278		2.762412		-40.943052		-12.938022		-49.027996		57.040949		87.572494		-38.173932		-24.828930		39.999859		-36.510355		-16.601164		-36.395448		48.742839		92.426366		-39.459608		-7.360583		89.328430		
0.876818		2.729758		0.496337		88.781941		-0.007222		0.622935		0.459405		74.105795		-8.589474		-5.688419		-100.922629		20.339690		3.203556		-4.747229		71.096092		-6.752537		3.544799		-101.951301		32.445227		-5.878767		-14.054983		-40.241190		4.787623		4.073594		5.606474		-0.843809		2.853381		-39.440233		-13.560064		-48.979593		58.409961		88.388848		-38.363378		-24.997573		40.913261		-34.838404		-16.996704		-35.791986		50.285097		92.796774		-39.424930		-7.537557		89.826066		
0.879646		2.869571		0.862920		88.694470		-0.007266		0.614894		0.457460		74.723895		-8.554494		-5.642556		-102.537153		20.550736		3.016012		-3.243702		71.906761		-6.834724		3.754264		-103.816355		32.455577		-5.936670		-13.573236		-41.516536		4.834075		4.249573		7.362239		-0.903203		2.938490		-37.791060		-14.176826		-49.103161		59.727322		89.987119		-39.161919		-25.000000		43.879232		-33.119370		-17.430282		-35.124551		51.831897		93.264201		-39.627504		-7.472296		89.981847		
0.882475		2.979715		1.163789		88.538827		-0.007111		0.606918		0.455564		75.347476		-8.455838		-5.572105		-104.047340		20.921045		2.881686		-2.803859		72.750999		-6.981533		3.891160		-105.627464		32.395353		-6.238315		-13.430313		-42.734456		4.783316		4.409995		9.162461		-0.936279		3.109798		-36.228190		-14.930684		-48.819507		61.122139		90.704930		-39.524476		-25.000000		44.508745		-31.487240		-17.927719		-34.452339		53.428223		93.582204		-39.600443		-7.661362		90.000210		
0.885303		3.110346		1.710678		88.378653		-0.007032		0.599739		0.453691		75.583418		-8.363096		-5.530909		-105.431895		21.411584		2.788218		-2.372324		73.245753		-7.154299		3.999532		-107.341280		32.371883		-6.566969		-13.180726		-44.222203		4.749203		4.549587		10.837637		-0.947712		3.212784		-34.661875		-15.746152		-48.517025		62.618968		92.093941		-40.064562		-25.000000		45.240343		-29.880392		-18.495532		-33.674511		55.109153		93.967135		-39.759220		-7.753860		90.000210		
0.888131		3.157865		1.962136		88.272480		-0.006914		0.591910		0.451766		76.142289		-8.359838		-5.440790		-106.817961		22.034212		2.748238		-2.156790		74.056808		-7.252316		4.075914		-109.039734		32.448069		-6.730456		-13.023333		-45.302252		4.659740		4.609051		12.320891		-0.946506		3.268446		-33.197839		-16.653250		-48.011114		64.039045		92.930752		-40.311146		-25.000000		45.649556		-28.374914		-19.201836		-32.818123		56.815318		94.297639		-39.816753		-7.886651		90.000210		
0.890960		3.226451		2.399916		88.136293		-0.006830		0.584939		0.449956		76.408638		-8.340396		-5.356447		-108.079863		22.707284		2.907040		-1.784824		74.573694		-7.399957		4.121115		-110.598602		32.428047		-6.949946		-12.675351		-46.660583		4.557161		4.733013		14.048703		-0.906641		3.368563		-31.551054		-17.543609		-47.646657		65.371640		94.439642		-41.078020		-25.000000		46.533232		-26.711343		-19.934417		-31.912242		58.499730		94.675046		-40.256010		-7.802022		90.000210		
0.893788		3.249704		2.711848		88.042953		-0.006726		0.577653		0.448073		76.811292		-8.395133		-5.257749		-109.347023		23.437913		3.095946		-1.495958		75.212125		-7.497778		4.142047		-112.127434		32.484438		-7.120345		-12.298838		-47.792264		4.443216		4.756062		15.500152		-0.850875		3.401944		-30.008919		-18.560114		-47.003875		66.722725		95.491065		-41.821970		-25.000000		47.255954		-25.168146		-20.812162		-30.902073		60.187591		95.049980		-40.662457		-7.730614		90.000210		
0.896616		3.280144		3.015356		87.961581		-0.006623		0.570367		0.446093		77.210322		-8.460294		-5.169698		-110.610951		24.112774		3.245616		-1.265804		75.826162		-7.597209		4.171104		-113.617517		32.595329		-7.295711		-11.981976		-48.832021		4.352087		4.743625		16.644413		-0.805857		3.397466		-28.551605		-19.704550		-46.185692		68.099521		96.405578		-42.372553		-25.000000		47.827213		-23.684294		-21.784231		-29.826275		61.844773		95.432280		-40.937438		-7.720733		90.000210		
0.899444		3.287306		3.386761		87.887731		-0.006660		0.563530		0.444193		77.477147		-8.567925		-5.024443		-111.803535		24.959541		3.737795		-1.051154		76.302146		-7.682318		4.157840		-115.008519		32.670520		-7.455560		-11.584755		-50.002284		4.244697		4.765990		18.043699		-0.728650		3.395385		-27.050019		-20.864951		-45.364251		69.428096		97.478009		-43.450941		-25.000000		48.289188		-22.098390		-22.798890		-28.678624		63.531807		95.908364		-41.521547		-7.548526		90.000210		
0.902273		3.260378		3.705607		87.848592		-0.006700		0.556614		0.442248		77.808522		-8.711547		-4.862823		-112.997492		25.797764		4.146670		-0.851981		76.808656		-7.727848		4.121573		-116.352888		32.756557		-7.599120		-11.002792		-51.053817		4.131764		4.739851		19.281749		-0.628921		3.369326		-25.561818		-22.109367		-44.412896		70.683510		98.368305		-44.656229		-25.000000		48.979604		-20.532356		-23.928114		-27.437271		65.208470		96.438702		-42.192303		-7.232688		90.000210		
0.905101		3.289790		3.885283		87.820912		-0.006572		0.549309		0.440156		78.313862		-8.805954		-4.799258		-114.231602		26.418043		4.161960		-0.762350		77.488257		-7.792817		4.179946		-117.713286		32.955832		-7.735268		-10.848278		-51.820125		4.069753		4.699855		20.045486		-0.606525		3.334680		-24.128336		-23.470121		-43.393213		71.878134		98.805383		-44.746552		-25.000000		49.130311		-19.037455		-25.162471		-26.241959		66.734409		96.843474		-42.105288		-7.357997		90.000210		
0.907929		3.236145		4.299310		87.814163		-0.006780		0.542889		0.438195		78.488542		-8.994682		-4.567222		-115.376047		27.406526		4.830969		-0.633872		77.812906		-7.799583		4.103917		-118.954276		33.097332		-7.837453		-10.334465		-52.938543		3.970610		4.693198		21.241732		-0.517539		3.254836		-22.660144		-24.827624		-42.361908		73.058097		99.715590		-46.219641		-25.000000		49.442179		-17.343720		-26.450152		-24.824953		68.346515		97.581976		-42.812782		-6.938589		90.000210		
0.910758		3.223095		4.525566		87.808550		-0.006770		0.535957		0.436148		78.922669		-9.107294		-4.423913		-116.565160		28.066118		4.955955		-0.582299		78.380180		-7.824963		4.116570		-120.215344		33.285254		-7.955714		-10.046143		-53.715497		3.901916		4.641719		21.960106		-0.515111		3.199180		-21.156607		-26.288476		-41.240317		74.122210		100.143758		-46.707000		-25.000000		49.666865		-15.742946		-27.845481		-23.444842		69.823499		98.178288		-42.923124		-6.796434		90.000210		
0.913586		3.149346		4.842556		87.822564		-0.006927		0.529442		0.434181		79.240712		-9.258976		-4.176076		-117.717794		28.867835		5.329197		-0.549224		78.796621		-7.816314		4.042091		-121.407748		33.433918		-8.048546		-9.515769		-54.611099		3.808330		4.594370		22.804314		-0.478323		3.114897		-19.627100		-27.779353		-40.063573		75.137046		100.669559		-47.931645		-25.000000		50.068590		-14.003066		-29.302545		-21.911085		71.317803		99.023813		-43.426373		-6.265853		90.000210		
0.916414		3.091581		5.095337		87.843895		-0.007023		0.522846		0.432256		79.644284		-9.363964		-3.939407		-118.861548		29.545771		5.513596		-0.562971		79.300692		-7.823442		3.992657		-122.590759		33.573988		-8.109537		-9.040041		-55.390768		3.733424		4.552182		23.508029		-0.442659		3.042637		-18.088194		-29.315486		-38.870101		76.120751		100.976765		-48.834959		-25.000000		50.509833		-12.201401		-30.814246		-20.369137		72.713114		99.898676		-43.606305		-5.808542		90.000210		
